<?xml version="1.0" encoding="UTF-8" standalone="no"?>
<!DOCTYPE svg PUBLIC "-//W3C//DTD SVG 1.1//EN" "http://www.w3.org/Graphics/SVG/1.1/DTD/svg11.dtd">
<!-- Generated by Microsoft Visio, SVG Export Jul041247.svg Page-1 -->
<svg xmlns="http://www.w3.org/2000/svg" xmlns:xlink="http://www.w3.org/1999/xlink" xmlns:ev="http://www.w3.org/2001/xml-events"
		xmlns:v="http://schemas.microsoft.com/visio/2003/SVGExtensions/" width="11.9956in" height="9.83045in"
		viewBox="0 0 863.681 707.792" xml:space="preserve" color-interpolation-filters="sRGB" class="st19">
	<v:documentProperties v:langID="1033" v:metric="true" v:viewMarkup="false">
		<v:userDefs>
			<v:ud v:nameU="msvSubprocessMaster" v:prompt="" v:val="VT4(Rectangle)"/>
			<v:ud v:nameU="msvNoAutoConnect" v:val="VT0(1):26"/>
		</v:userDefs>
	</v:documentProperties>

	<style type="text/css">
	<![CDATA[
		.st1 {fill:none;stroke:none;stroke-linecap:round;stroke-linejoin:round;stroke-width:4.5}
		.st2 {fill:#bdedff;font-family:Arial Rounded MT Bold;font-size:4.99999em}
		.st3 {fill:none;stroke:#000000;stroke-linecap:round;stroke-linejoin:round;stroke-width:4.5}
		.st4 {stroke:#000000;stroke-linecap:round;stroke-linejoin:round;stroke-width:4.5}
		.st5 {marker-start:url(#mrkr13-20);stroke:#000000;stroke-linecap:round;stroke-linejoin:round;stroke-width:4.5}
		.st6 {fill:#000000;fill-opacity:1;stroke:#000000;stroke-opacity:1;stroke-width:0.64102564102564}
		.st7 {fill:#ffffff;stroke:#000000;stroke-linecap:round;stroke-linejoin:round;stroke-width:4.5}
		.st8 {marker-end:url(#mrkr41-66);stroke:#000000;stroke-linecap:round;stroke-linejoin:round;stroke-width:4.5}
		.st9 {marker-end:url(#mrkr42-80);stroke:#000000;stroke-linecap:round;stroke-linejoin:round;stroke-width:4.5}
		.st10 {marker-start:url(#mrkr41-114);stroke:#000000;stroke-linecap:round;stroke-linejoin:round;stroke-width:4.5}
		.st11 {marker-start:url(#mrkr42-129);stroke:#000000;stroke-linecap:round;stroke-linejoin:round;stroke-width:4.5}
		.st12 {fill:#d8d8d8;stroke:#000000;stroke-linecap:round;stroke-linejoin:round;stroke-width:4.5}
		.st13 {marker-start:url(#mrkr13-147);stroke:#000000;stroke-linecap:round;stroke-linejoin:round;stroke-width:3}
		.st14 {fill:#000000;fill-opacity:1;stroke:#000000;stroke-opacity:1;stroke-width:0.54347826086957}
		.st15 {fill:none;stroke:none;stroke-width:0.25}
		.st16 {fill:#000000;font-family:Calibri;font-size:3em}
		.st17 {baseline-shift:-32.4951%;font-size:0.649902em}
		.st18 {font-size:1em}
		.st19 {fill:none;fill-rule:evenodd;font-size:12px;overflow:visible;stroke-linecap:square;stroke-miterlimit:3}
	]]>
	</style>

	<defs id="Markers">
		<g id="lend13">
			<path d="M 3 1 L 0 0 L 3 -1 L 3 1 " style="stroke:none"/>
		</g>
		<marker id="mrkr13-20" class="st6" v:arrowType="13" v:arrowSize="2" v:setback="4.6" refX="4.6" orient="auto"
				markerUnits="strokeWidth" overflow="visible">
			<use xlink:href="#lend13" transform="scale(1.56) "/>
		</marker>
		<g id="lend41">
			<path
					d="M 0.75 0.75 C 0.335786 0.75 0 0.414214 0 0 0 -0.414214 0.335786 -0.75 0.75 -0.75 1.16421 -0.75 1.5 -0.414214 1.5 0 1.5 0.414214 1.16421 0.75 0.75 0.75 Z "
					style="stroke-linecap:round;stroke-linejoin:round;fill:none"/>
		</g>
		<marker id="mrkr41-66" class="st6" v:arrowType="41" v:arrowSize="2" v:setback="2.34" refX="-2.34" orient="auto"
				markerUnits="strokeWidth" overflow="visible">
			<use xlink:href="#lend41" transform="scale(-1.56,-1.56) "/>
		</marker>
		<g id="lend42">
			<path
					d="M 0 0.75 C -0.414214 0.75 -0.75 0.414214 -0.75 0 -0.75 -0.414214 -0.414214 -0.75 0 -0.75 0.414214 -0.75 0.75 -0.414214 0.75 0 0.75 0.414214 0.414214 0.75 0 0.75 Z "
					style="stroke:none"/>
		</g>
		<marker id="mrkr42-80" class="st6" v:arrowType="42" v:arrowSize="2" v:setback="1.17" refX="-1.17" orient="auto"
				markerUnits="strokeWidth" overflow="visible">
			<use xlink:href="#lend42" transform="scale(-1.56,-1.56) "/>
		</marker>
		<marker id="mrkr41-114" class="st6" v:arrowType="41" v:arrowSize="2" v:setback="2.26" refX="2.26" orient="auto"
				markerUnits="strokeWidth" overflow="visible">
			<use xlink:href="#lend41" transform="scale(1.56) "/>
		</marker>
		<marker id="mrkr42-129" class="st6" v:arrowType="42" v:arrowSize="2" v:setback="1.09" refX="1.09" orient="auto"
				markerUnits="strokeWidth" overflow="visible">
			<use xlink:href="#lend42" transform="scale(1.56) "/>
		</marker>
		<marker id="mrkr13-147" class="st14" v:arrowType="13" v:arrowSize="2" v:setback="5.4" refX="5.4" orient="auto"
				markerUnits="strokeWidth" overflow="visible">
			<use xlink:href="#lend13" transform="scale(1.84) "/>
		</marker>
	</defs>
	<g v:mID="0" v:index="1" v:groupContext="foregroundPage">
		<v:userDefs>
			<v:ud v:nameU="msvThemeOrder" v:val="VT0(0):26"/>
		</v:userDefs>
		<title>Page-1</title>
		<v:pageProperties v:drawingScale="0.0393701" v:pageScale="0.0393701" v:drawingUnits="24" v:shadowOffsetX="8.50394"
				v:shadowOffsetY="-8.50394"/>
		<v:layer v:name="Connector" v:index="0"/>
		<v:layer v:name="Flowchart" v:index="1"/>
		<g id="shape1-1" v:mID="1" v:groupContext="shape" transform="translate(111.35,-352.652)">
			<title>Sheet.1</title>
			<desc>ExamSIDE.com</desc>
			<v:textBlock v:margins="rect(4,4,4,4)" v:tabSpace="42.5197"/>
			<v:textRect cx="333.231" cy="663.946" width="666.47" height="87.6924"/>
			<rect x="0" y="620.1" width="666.462" height="87.6924" class="st1"/>
			<text x="109.73" y="681.95" class="st2" v:langID="16393"><v:paragraph v:horizAlign="1"/><v:tabList/>ExamSIDE.com</text>		</g>
		<g id="shape2-4" v:mID="2" v:groupContext="shape" transform="translate(182.537,-117.022)">
			<title>Rectangle</title>
			<v:userDefs>
				<v:ud v:nameU="visVersion" v:val="VT0(15):26"/>
			</v:userDefs>
			<rect x="0" y="427.162" width="374.173" height="280.63" class="st3"/>
		</g>
		<g id="shape4-6" v:mID="4" v:groupContext="shape" transform="translate(295.654,-127.559)">
			<title>Bracket</title>
			<v:userDefs>
				<v:ud v:nameU="visVersion" v:val="VT0(15):26"/>
			</v:userDefs>
			<path d="M0 707.79 A17.9957 17.9957 0 0 1 15.9 691.89 L57.08 691.89 A17.9957 17.9957 -180 0 0 72.98 676 A17.9957 17.9957
						 -180 0 0 88.88 691.89 L125.83 691.89 A17.9957 17.9957 0 0 1 141.73 707.79" class="st4"/>
		</g>
		<g id="shape5-9" v:mID="5" v:groupContext="shape" transform="translate(536.598,1032.91) rotate(180)">
			<title>Bracket.5</title>
			<v:userDefs>
				<v:ud v:nameU="visVersion" v:val="VT0(15):26"/>
			</v:userDefs>
			<path d="M0 707.79 A17.4468 17.4468 0 0 1 15.41 692.38 L47.64 692.38 A17.4468 17.4468 -180 0 0 63.05 676.97 A17.4468
						 17.4468 -180 0 0 78.47 692.38 L107.04 692.38 A17.4468 17.4468 0 0 1 122.46 707.79" class="st4"/>
		</g>
		<g id="shape6-12" v:mID="6" v:groupContext="shape" transform="translate(338.173,1032.91) rotate(180)">
			<title>Bracket.6</title>
			<v:userDefs>
				<v:ud v:nameU="visVersion" v:val="VT0(15):26"/>
			</v:userDefs>
			<path d="M0 707.79 A17.4468 17.4468 0 0 1 15.41 692.38 L47.64 692.38 A17.4468 17.4468 -180 0 0 63.05 676.97 A17.4468
						 17.4468 -180 0 0 78.47 692.38 L107.04 692.38 A17.4468 17.4468 0 0 1 122.46 707.79" class="st4"/>
		</g>
		<g id="shape7-15" v:mID="7" v:groupContext="shape" transform="translate(-369.35,310.14) rotate(-90)">
			<title>Sheet.7</title>
			<path d="M20.7 707.79 L21.06 707.79 L139.25 707.79" class="st5"/>
		</g>
		<g id="shape8-21" v:mID="8" v:groupContext="shape" transform="translate(-491.237,313.023) rotate(-90)">
			<title>Sheet.8</title>
			<path d="M20.7 707.79 L21.06 707.79 L99.62 707.79" class="st5"/>
		</g>
		<g id="shape9-26" v:mID="9" v:groupContext="shape" transform="translate(-292.814,310.14) rotate(-90)">
			<title>Sheet.9</title>
			<path d="M20.7 707.79 L21.06 707.79 L54.21 707.79" class="st5"/>
		</g>
		<g id="shape10-31" v:mID="10" v:groupContext="shape" transform="translate(-170.925,310.14) rotate(-90)">
			<title>Sheet.10</title>
			<path d="M20.7 707.79 L21.06 707.79 L54.21 707.79" class="st5"/>
		</g>
		<g id="shape11-36" v:mID="11" v:groupContext="shape" transform="translate(-404.783,644.982) rotate(-90)">
			<title>Sheet.11</title>
			<path d="M20.7 707.79 L21.06 707.79 L54.21 707.79" class="st5"/>
		</g>
		<g id="shape12-41" v:mID="12" v:groupContext="shape" transform="translate(-338.169,644.982) rotate(-90)">
			<title>Sheet.12</title>
			<path d="M20.7 707.79 L21.06 707.79 L54.21 707.79" class="st5"/>
		</g>
		<g id="shape13-46" v:mID="13" v:groupContext="shape" transform="translate(-278.641,644.982) rotate(-90)">
			<title>Sheet.13</title>
			<path d="M20.7 707.79 L21.06 707.79 L54.21 707.79" class="st5"/>
		</g>
		<g id="shape14-51" v:mID="14" v:groupContext="shape" v:layerMember="1" transform="translate(1096.2,185.061) rotate(90)">
			<title>Or gate</title>
			<v:custProps>
				<v:cp v:nameU="Cost" v:lbl="Cost" v:type="7" v:format="@" v:langID="1033"/>
				<v:cp v:nameU="Duration" v:lbl="Duration" v:type="2" v:langID="1033"/>
				<v:cp v:nameU="Resources" v:lbl="Resources" v:langID="1033"/>
			</v:custProps>
			<v:userDefs>
				<v:ud v:nameU="visVersion" v:val="VT0(15):26"/>
			</v:userDefs>
			<path d="M30.71 654.64 A58.2532 54.6123 0 0 1 70.87 681.22 A54.1123 50.7303 0 0 1 30.71 707.79 L0 707.79 A70.9843 66.5477
						 -180 0 0 0 654.64 L30.71 654.64 Z" class="st7"/>
		</g>
		<g id="shape15-53" v:mID="15" v:groupContext="shape" v:layerMember="1" transform="translate(1218.08,185.061) rotate(90)">
			<title>Or gate.15</title>
			<v:custProps>
				<v:cp v:nameU="Cost" v:lbl="Cost" v:type="7" v:format="@" v:langID="1033"/>
				<v:cp v:nameU="Duration" v:lbl="Duration" v:type="2" v:langID="1033"/>
				<v:cp v:nameU="Resources" v:lbl="Resources" v:langID="1033"/>
			</v:custProps>
			<v:userDefs>
				<v:ud v:nameU="visVersion" v:val="VT0(15):26"/>
			</v:userDefs>
			<path d="M30.71 654.64 A58.2532 54.6123 0 0 1 70.87 681.22 A54.1123 50.7303 0 0 1 30.71 707.79 L0 707.79 A70.9843 66.5477
						 -180 0 0 0 654.64 L30.71 654.64 Z" class="st7"/>
		</g>
		<g id="shape16-55" v:mID="16" v:groupContext="shape" transform="translate(380.962,-524.937)">
			<title>Sheet.16</title>
			<path d="M0 687.32 C1.5 708.71 64.25 720.45 70.87 687.32" class="st4"/>
		</g>
		<g id="shape17-58" v:mID="17" v:groupContext="shape" transform="translate(500.017,-524.937)">
			<title>Sheet.17</title>
			<path d="M0 687.32 C1.5 708.71 64.25 720.45 70.87 687.32" class="st4"/>
		</g>
		<g id="shape18-61" v:mID="18" v:groupContext="shape" transform="translate(-311.01,178.557) rotate(-90)">
			<title>Sheet.18</title>
			<path d="M0 707.79 L85.21 707.79" class="st8"/>
		</g>
		<g id="shape19-67" v:mID="19" v:groupContext="shape" transform="translate(-274.348,181.172) rotate(-90)">
			<title>Sheet.19</title>
			<path d="M0 707.79 L52.8 707.79" class="st4"/>
		</g>
		<g id="shape20-70" v:mID="20" v:groupContext="shape" transform="translate(-187.62,180.153) rotate(-90)">
			<title>Sheet.20</title>
			<path d="M0 707.79 L86.8 707.79" class="st8"/>
		</g>
		<g id="shape21-75" v:mID="21" v:groupContext="shape" transform="translate(-154.421,180.897) rotate(-90)">
			<title>Sheet.21</title>
			<path d="M0 707.79 L47.54 707.79" class="st9"/>
		</g>
		<g id="shape22-81" v:mID="22" v:groupContext="shape" transform="translate(433.444,-579.424)">
			<title>Sheet.22</title>
			<path d="M0 707.79 L75.08 707.79" class="st4"/>
		</g>
		<g id="shape23-84" v:mID="23" v:groupContext="shape" transform="translate(528.364,-579.424)">
			<title>Sheet.23</title>
			<path d="M0 707.79 L25.01 707.79" class="st4"/>
		</g>
		<g id="shape24-87" v:mID="24" v:groupContext="shape" transform="translate(508.521,-565.176)">
			<title>Sheet.24</title>
			<path d="M0 693.54 C-1.63 696.74 9.23 713.39 13.91 705.89 C16.64 701.52 17.26 688.92 22.68 693.54" class="st4"/>
		</g>
		<g id="shape26-90" v:mID="26" v:groupContext="shape" transform="translate(553.371,-579.424)">
			<title>Sheet.26</title>
			<path d="M0 707.79 L89.42 707.79" class="st4"/>
		</g>
		<g id="shape27-93" v:mID="27" v:groupContext="shape" transform="translate(556.71,-301.629)">
			<title>Sheet.27</title>
			<path d="M20.7 707.79 L21.06 707.79 L226.32 707.79" class="st5"/>
		</g>
		<g id="shape28-98" v:mID="28" v:groupContext="shape" transform="translate(1349.54,128.368) rotate(90)">
			<title>Sheet.28</title>
			<path d="M0 707.79 L272.53 707.79" class="st9"/>
		</g>
		<g id="shape29-103" v:mID="29" v:groupContext="shape" transform="translate(721.12,-324.306)">
			<title>Sheet.29</title>
			<path d="M0 707.79 L0 622.75 L56.69 622.75" class="st4"/>
		</g>
		<g id="shape30-106" v:mID="30" v:groupContext="shape" transform="translate(1485.17,323.354) rotate(92.0166)">
			<title>Sheet.30</title>
			<path d="M0 707.79 L50.35 707.79" class="st4"/>
		</g>
		<g id="shape31-109" v:mID="31" v:groupContext="shape" transform="translate(1428.91,426.006) rotate(90)">
			<title>Sheet.31</title>
			<path d="M10.17 707.79 L10.53 707.79 L64.15 707.79" class="st10"/>
		</g>
		<g id="shape32-115" v:mID="32" v:groupContext="shape" transform="translate(706.946,-216.589)">
			<title>Sheet.32</title>
			<path d="M0 707.79 L28.35 707.79" class="st4"/>
		</g>
		<g id="shape33-118" v:mID="33" v:groupContext="shape" transform="translate(714.033,-206.668)">
			<title>Sheet.33</title>
			<path d="M0 707.79 L17.53 707.79" class="st4"/>
		</g>
		<g id="shape34-121" v:mID="34" v:groupContext="shape" transform="translate(1428.91,501.124) rotate(90)">
			<title>Sheet.34</title>
			<path d="M0 707.79 L52.44 707.79" class="st4"/>
		</g>
		<g id="shape37-124" v:mID="37" v:groupContext="shape" transform="translate(1364.82,89.1797) rotate(65.4297)">
			<title>Sheet.37</title>
			<path d="M4.66 706.25 L5 706.14 C5.85 705.88 6.7 705.64 7.53 705.41 C18.21 702.44 25.35 702.3 34.09 707.79"
					class="st11"/>
		</g>
		<g id="shape38-130" v:mID="38" v:groupContext="shape" transform="translate(802.616,1043.8) rotate(180)">
			<title>Triangle</title>
			<v:userDefs>
				<v:ud v:nameU="visVersion" v:val="VT0(15):26"/>
			</v:userDefs>
			<path d="M53.15 707.79 L26.57 669.52 L0 707.79 L53.15 707.79 Z" class="st12"/>
		</g>
		<g id="shape39-132" v:mID="39" v:groupContext="shape" transform="translate(-491.237,213.408) rotate(-90)">
			<title>Sheet.39</title>
			<path d="M0 707.79 L121.5 707.79" class="st8"/>
		</g>
		<g id="shape40-137" v:mID="40" v:groupContext="shape" transform="translate(-369.35,170.888) rotate(-90)">
			<title>Sheet.40</title>
			<path d="M0 707.79 L78.99 707.79" class="st8"/>
		</g>
		<g id="shape44-142" v:mID="44" v:groupContext="shape" transform="translate(182.375,-26.9337) rotate(-49.9451)">
			<title>Sheet.44</title>
			<path d="M15.97 706.55 L16.33 706.61 C18.52 705.59 20.19 704.22 22.47 703.85" class="st13"/>
		</g>
		<g id="shape45-148" v:mID="45" v:groupContext="shape" transform="translate(183.195,-618.192)">
			<title>Sheet.45</title>
			<desc>A1</desc>
			<v:textBlock v:margins="rect(4,4,4,4)" v:tabSpace="42.5197"/>
			<v:textRect cx="76" cy="697.792" width="152.01" height="20"/>
			<rect x="0" y="687.792" width="152" height="20" class="st15"/>
			<text x="59.66" y="708.59" class="st16" v:langID="16393"><v:paragraph v:horizAlign="1"/><v:tabList/>A<tspan
						dy="-0.284em" class="st17" v:baseFontSize="36">1</tspan></text>		</g>
		<g id="shape46-152" v:mID="46" v:groupContext="shape" transform="translate(289.553,-618.192)">
			<title>Sheet.46</title>
			<desc>A0</desc>
			<v:textBlock v:margins="rect(4,4,4,4)" v:tabSpace="42.5197"/>
			<v:textRect cx="76" cy="697.792" width="152.01" height="20"/>
			<rect x="0" y="687.792" width="152" height="20" class="st15"/>
			<text x="59.66" y="708.59" class="st16" v:langID="16393"><v:paragraph v:horizAlign="1"/><v:tabList/>A<tspan
						dy="-0.284em" class="st17" v:baseFontSize="36">0</tspan></text>		</g>
		<g id="shape47-156" v:mID="47" v:groupContext="shape" transform="translate(358.407,-618.192)">
			<title>Sheet.47</title>
			<desc>B1</desc>
			<v:textBlock v:margins="rect(4,4,4,4)" v:tabSpace="42.5197"/>
			<v:textRect cx="76" cy="697.792" width="152.01" height="20"/>
			<rect x="0" y="687.792" width="152" height="20" class="st15"/>
			<text x="60.28" y="708.59" class="st16" v:langID="16393"><v:paragraph v:horizAlign="1"/><v:tabList/>B<tspan
						dy="-0.284em" class="st17" v:baseFontSize="36">1</tspan></text>		</g>
		<g id="shape48-160" v:mID="48" v:groupContext="shape" transform="translate(457.62,-618.192)">
			<title>Sheet.48</title>
			<desc>B0</desc>
			<v:textBlock v:margins="rect(4,4,4,4)" v:tabSpace="42.5197"/>
			<v:textRect cx="87.6063" cy="697.792" width="175.22" height="20"/>
			<rect x="0" y="687.792" width="175.213" height="20" class="st15"/>
			<text x="71.89" y="708.59" class="st16" v:langID="16393"><v:paragraph v:horizAlign="1"/><v:tabList/>B<tspan
						dy="-0.284em" class="st17" v:baseFontSize="36">0</tspan></text>		</g>
		<g id="shape49-164" v:mID="49" v:groupContext="shape" transform="translate(591.478,-576.932)">
			<title>Sheet.49</title>
			<desc>2&#39;s complement</desc>
			<v:textBlock v:margins="rect(4,4,4,4)" v:tabSpace="42.5197"/>
			<v:textRect cx="124.409" cy="677.162" width="248.82" height="61.2598"/>
			<rect x="0" y="646.532" width="248.819" height="61.2598" class="st15"/>
			<text x="7.36" y="687.96" class="st16" v:langID="16393"><v:paragraph v:horizAlign="1"/><v:tabList/>2&#39;s complement</text>		</g>
		<g id="shape50-167" v:mID="50" v:groupContext="shape" transform="translate(32.4232,-658.192)">
			<title>Sheet.50</title>
			<desc>B is substracted</desc>
			<v:textBlock v:margins="rect(4,4,4,4)" v:tabSpace="42.5197"/>
			<v:textRect cx="152.165" cy="697.792" width="304.34" height="20"/>
			<rect x="0" y="687.792" width="304.331" height="20" class="st15"/>
			<text x="37.09" y="708.59" class="st16" v:langID="16393"><v:paragraph v:horizAlign="1"/><v:tabList/>B is substracted</text>		</g>
		<g id="shape51-170" v:mID="51" v:groupContext="shape" transform="translate(18.25,-618.192)">
			<title>Sheet.51</title>
			<desc>from A</desc>
			<v:textBlock v:margins="rect(4,4,4,4)" v:tabSpace="42.5197"/>
			<v:textRect cx="99.2126" cy="688.658" width="198.43" height="38.2677"/>
			<rect x="0" y="669.524" width="198.425" height="38.2677" class="st15"/>
			<text x="49.09" y="699.46" class="st16" v:langID="16393"><v:paragraph v:horizAlign="1"/><v:tabList/>from A</text>		</g>
		<g id="shape52-173" v:mID="52" v:groupContext="shape" transform="translate(202.502,-316.154)">
			<title>Sheet.52</title>
			<desc>Ain</desc>
			<v:textBlock v:margins="rect(4,4,4,4)" v:tabSpace="42.5197"/>
			<v:textRect cx="76" cy="688.658" width="152.01" height="38.2677"/>
			<rect x="0" y="669.524" width="152" height="38.2677" class="st15"/>
			<text x="56.75" y="699.46" class="st16" v:langID="16393"><v:paragraph v:horizAlign="1"/><v:tabList/>A<tspan
						dy="-0.284em" class="st17" v:baseFontSize="36">in</tspan></text>		</g>
		<g id="shape53-177" v:mID="53" v:groupContext="shape" transform="translate(404.71,-302.864)">
			<title>Sheet.53</title>
			<desc>Bin</desc>
			<v:textBlock v:margins="rect(4,4,4,4)" v:tabSpace="42.5197"/>
			<v:textRect cx="76" cy="677.162" width="152.01" height="61.2598"/>
			<rect x="0" y="646.532" width="152" height="61.2598" class="st15"/>
			<text x="57.38" y="687.96" class="st16" v:langID="16393"><v:paragraph v:horizAlign="1"/><v:tabList/>B<tspan
						dy="-0.284em" class="st17" v:baseFontSize="36">in</tspan></text>		</g>
		<g id="shape54-181" v:mID="54" v:groupContext="shape" transform="translate(404.71,-294.384)">
			<title>Sheet.54</title>
			<desc>Cin</desc>
			<v:textBlock v:margins="rect(4,4,4,4)" v:tabSpace="42.5197"/>
			<v:textRect cx="76" cy="697.792" width="152.01" height="20"/>
			<rect x="0" y="687.792" width="152" height="20" class="st15"/>
			<text x="57.57" y="708.59" class="st16" v:langID="16393"><v:paragraph v:horizAlign="1"/><v:tabList/>C<tspan
						dy="-0.284em" class="st17" v:baseFontSize="36">in</tspan></text>		</g>
		<g id="shape55-185" v:mID="55" v:groupContext="shape" transform="translate(245.214,-182.689)">
			<title>Sheet.55</title>
			<desc>2 bit full adder sum</desc>
			<v:textBlock v:margins="rect(4,4,4,4)" v:tabSpace="42.5197"/>
			<v:textRect cx="124.409" cy="697.792" width="248.82" height="20"/>
			<rect x="0" y="687.792" width="248.819" height="20" class="st15"/>
			<text x="17.48" y="686.99" class="st16" v:langID="16393"><v:paragraph v:horizAlign="1"/><v:tabList/>2 bit full adder <tspan
						x="93.53" dy="1.2em" class="st18">sum</tspan></text>		</g>
		<g id="shape56-189" v:mID="56" v:groupContext="shape" transform="translate(693.431,-192.689)">
			<title>Sheet.56</title>
			<desc>VCC</desc>
			<v:textBlock v:margins="rect(4,4,4,4)" v:tabSpace="42.5197"/>
			<v:textRect cx="76" cy="697.792" width="152.01" height="20"/>
			<rect x="0" y="687.792" width="152" height="20" class="st15"/>
			<text x="53.31" y="708.59" class="st16" v:langID="16393"><v:paragraph v:horizAlign="1"/><v:tabList/>V<tspan
						dy="-0.284em" class="st17" v:baseFontSize="36">CC</tspan></text>		</g>
		<g id="shape57-193" v:mID="57" v:groupContext="shape" transform="translate(225.715,-33.7916)">
			<title>Sheet.57</title>
			<desc>C0</desc>
			<v:textBlock v:margins="rect(4,4,4,4)" v:tabSpace="42.5197"/>
			<v:textRect cx="76" cy="697.792" width="152.01" height="20"/>
			<rect x="0" y="687.792" width="152" height="20" class="st15"/>
			<text x="60.47" y="708.59" class="st16" v:langID="16393"><v:paragraph v:horizAlign="1"/><v:tabList/>C<tspan
						dy="-0.284em" class="st17" v:baseFontSize="36">0</tspan></text>		</g>
		<g id="shape58-197" v:mID="58" v:groupContext="shape" transform="translate(293.623,-22.3428)">
			<title>Sheet.58</title>
			<desc>S1</desc>
			<v:textBlock v:margins="rect(4,4,4,4)" v:tabSpace="42.5197"/>
			<v:textRect cx="76" cy="688.658" width="152.01" height="38.2677"/>
			<rect x="0" y="669.524" width="152" height="38.2677" class="st15"/>
			<text x="61.8" y="699.46" class="st16" v:langID="16393"><v:paragraph v:horizAlign="1"/><v:tabList/>S<tspan
						dy="-0.284em" class="st17" v:baseFontSize="36">1</tspan></text>		</g>
		<g id="shape59-201" v:mID="59" v:groupContext="shape" transform="translate(353.274,-22.6105)">
			<title>Sheet.59</title>
			<desc>S0</desc>
			<v:textBlock v:margins="rect(4,4,4,4)" v:tabSpace="42.5197"/>
			<v:textRect cx="76" cy="688.658" width="152.01" height="38.2677"/>
			<rect x="0" y="669.524" width="152" height="38.2677" class="st15"/>
			<text x="61.8" y="699.46" class="st16" v:langID="16393"><v:paragraph v:horizAlign="1"/><v:tabList/>S<tspan
						dy="-0.284em" class="st17" v:baseFontSize="36">0</tspan></text>		</g>
	</g>
</svg>
